PathFileType	4	(X/Y/Z)	Patient4_TMGait_0pt3_02_right_17.trc.trc
DataRate	CameraRate	NumFrames	NumMarkers	Units	OrigDataRate	OrigDataStartFrame	OrigNumFrames
49.645390070922	49.645390070922	5	33	mm	49.645390070922	53	       141
Frame#	Time	Sacral			L.Shoulder			Chest			R.Shoulder			Neck			R.ASIS			L.ASIS			R.Thigh.Superior			R.Thigh.Lateral			R.Thigh.Inferior			R.Patella			L.Thigh.Superior			L.Thigh.Lateral			L.Thigh.Inferior			L.Patella			L.Shank.Superior			L.Shank.Lateral			L.Shank.Inferior			R.Shank.Superior			R.Shank.Lateral			R.Shank.Inferior			R.Heel			R.Midfoot.Superior			R.Midfoot.Lateral			R.Toe			L.Heel			L.Midfoot.Lateral			L.Midfoot.Superior			L.Toe			L.Elbow			L.Wrist			R.Elbow			R.Wrist			
		X1	Y1	Z1	X2	Y2	Z2	X3	Y3	Z3	X4	Y4	Z4	X5	Y5	Z5	X6	Y6	Z6	X7	Y7	Z7	X8	Y8	Z8	X9	Y9	Z9	X10	Y10	Z10	X11	Y11	Z11	X12	Y12	Z12	X13	Y13	Z13	X14	Y14	Z14	X15	Y15	Z15	X16	Y16	Z16	X17	Y17	Z17	X18	Y18	Z18	X19	Y19	Z19	X20	Y20	Z20	X21	Y21	Z21	X22	Y22	Z22	X23	Y23	Z23	X24	Y24	Z24	X25	Y25	Z25	X26	Y26	Z26	X27	Y27	Z27	X28	Y28	Z28	X29	Y29	Z29	X30	Y30	Z30	X31	Y31	Z31	X32	Y32	Z32	X33	Y33	Z33	

53	32.997428571429	694.410099439146	988.316830414655	581.252059747021	861.242380699164	1419.039153510934	381.367647604737	969.795548542459	1354.344252849586	540.569440010671	892.609230053281	1428.781705254817	716.408745891083	851.176519388453	1484.043981727007	539.125729183092	933.678660402889	935.882571093772	684.514863831179	900.295331813602	951.101612820548	412.338312875609	983.361263576444	737.082885044182	642.119207268805	910.167525973526	617.934450263222	695.170568927280	987.175694326152	575.267437841930	609.403446577105	991.175115786478	480.223814672214	611.120347230107	996.756477857237	779.252857461755	434.731971198078	959.933128530479	651.685120368613	352.989897736351	1071.425219524349	599.258872616541	411.747173419139	1093.178288077664	513.339556164543	399.096891554265	1036.218665339760	441.375408871583	389.396839210334	900.844416059383	376.404438178282	353.657426795339	922.110058686260	243.647696859208	393.926053031668	948.586446001713	392.483266287473	611.567713037692	865.254006348195	293.743183326297	668.307057707381	894.369822742365	200.346314686638	597.087479985554	741.453234812918	43.886384917878	559.364500192642	915.016378441427	96.142570518517	595.207201228359	825.145041521743	37.103318551055	633.297678072148	1033.573465490666	41.664579916819	621.732672127145	758.034908355538	141.612257392744	450.228001019279	807.681413473347	115.248596842717	357.702482008392	910.883643199366	139.613896708085	364.706769068648	998.555451347531	46.912395980155	312.426583285684	850.592142035619	1060.208967980221	276.499119495802	980.357083181897	836.041369725800	286.900776754397	955.633205276428	1085.399591812055	838.933294487768	1179.158178156375	956.613708495097	821.162451175890	
54	33.017571428571	692.658784892758	987.869957649703	584.165864667043	858.353063002513	1417.824528375501	382.002469785896	968.854590965250	1353.093152236456	539.872426069563	894.401333156972	1428.254291092813	716.554053731560	850.502464819633	1483.268807562946	539.695254939198	932.531999565078	935.204003008855	685.695401757377	897.347142436775	950.314571350933	413.657491056865	981.069745070766	736.204593106132	643.155698143807	907.944190924293	617.128204508165	696.501148717076	984.435057632702	574.407111244093	610.318630391499	988.053460024572	479.149573780478	612.011245040122	993.801269789157	779.443996343099	435.496160829466	957.203355472987	651.703157866196	353.614364330863	1068.929647946906	600.181089255353	412.066181664431	1092.390064540680	516.125355789542	399.193419257050	1039.732429813445	442.860856508747	388.890124565683	909.568217663304	369.088939534123	352.226490413615	940.230331442693	237.610637902636	391.910998274199	944.830848773346	391.486490875614	612.180705540792	860.937581601853	293.180350767893	668.951886371237	889.285763572200	199.842556323604	597.400039936907	735.375816905246	43.859756836285	559.409911928359	909.147592397508	96.223017738652	595.487382030328	819.050894425812	37.088825277057	633.353626428706	1027.489356796659	41.640332190724	621.788419660094	783.856770550838	122.133310881283	447.081866617339	836.031151366582	101.314613367874	354.341664387925	937.207916637788	133.874847774578	361.874394570649	1032.551917754140	49.366771640650	308.739064674544	834.852722069276	1058.886814991778	280.404829075619	942.772321361971	822.740358099718	291.434877751131	973.094178057188	1089.077363594466	838.785379571415	1206.038931072414	980.206546761042	815.443038465214	
55	33.037714285714	690.964224872381	987.513051934123	586.716114230587	855.405683798884	1416.757315388406	382.525338674077	967.898579577889	1351.939270753814	538.960346962631	896.220341183818	1427.790664176164	716.456059950553	849.853165397499	1482.553891250777	540.090274407091	931.483579663068	934.509775930603	686.496167712363	894.493094702257	949.690839247235	414.602440219255	978.746455380711	735.272511814080	643.629139522702	905.736144212065	616.300236223253	697.381807207968	981.475264976718	573.503573101834	610.623339542520	984.661874327200	478.110515108183	612.221146601307	990.683093077946	779.259871103685	436.215609323478	954.097297049657	651.371893906432	354.246495976126	1065.618567463687	600.408719681940	412.739317744358	1090.648683468275	518.419384005822	399.782528026963	1042.484420200853	444.125046378128	388.680302330263	918.438101115371	361.694049669018	350.146371959729	958.214150964748	232.050851689980	389.574690385061	940.901348023677	390.477087433363	612.283880160227	856.685398859125	292.563873431050	669.283208741415	884.119721418479	199.278401318489	597.422570798725	729.288564652124	43.796795730005	559.435678696373	903.191175833077	96.259644317583	595.626306977641	812.950143443443	37.073410406399	633.396004104300	1021.393183921186	41.643384101696	621.819201852995	810.020455955689	104.122927237852	442.585190899482	864.909119960944	88.352246001950	350.207454467578	963.601034693358	128.570491209868	358.872269566008	1066.057661052470	52.107354006962	306.082029341653	818.866912484716	1058.455863456262	283.847663015070	905.274276818006	812.964904075846	295.663955072670	990.437700936819	1093.750196710032	838.334677833253	1230.966581768703	1005.407266095492	809.472709009951	
56	33.057857142857	689.391459888235	987.314869093774	588.955482275768	852.356264899083	1415.897266009212	382.933174312093	966.925368717343	1350.968914018988	537.804528396103	898.098094227980	1427.479635570624	716.099350244423	849.224544056879	1481.967095228540	540.297355191250	930.597646204087	933.846957615789	686.890513728306	891.731854735131	949.306140576174	415.157620805581	976.397266434787	734.314515209752	643.542731200719	903.500073159986	615.505392717379	697.825524804480	978.241758094632	572.582662849473	610.349082614702	980.921043256493	477.146649919802	611.792992987204	987.488082653276	778.848117989120	436.868620284659	950.730130691925	650.847531800150	354.839438656746	1061.675607534217	600.099388358298	413.672676991241	1088.117684657986	520.315141247008	400.779408576827	1044.490475046642	445.286681305193	388.772576073954	927.276216753983	354.648966532483	347.600388126137	975.599939455995	227.348844202124	387.150032036753	936.730252279311	389.508893363321	611.924629018166	852.431466912282	291.929033066350	669.333369579525	878.842371476027	198.691003294978	597.187416695078	723.191805787079	43.708070343884	559.447759492177	897.139927516465	96.241430321174	595.615662338655	806.845431794098	37.058326772069	633.427797796053	1015.287981445662	41.660852556979	621.826365184508	835.796159158782	88.320067690880	437.171359716582	893.543732653413	76.971747231192	345.709847972180	989.372191367475	124.121481326082	356.010023959650	1098.209147957984	55.275342303890	304.761348686418	802.708131144663	1058.939038572180	286.863633117966	868.548788431388	806.619268847745	299.556733334330	1007.463044554289	1099.438973480267	837.604110606486	1253.686271193185	1031.853492654535	803.381932632537	
57	33.078000000000	688.007672421831	987.349946829709	590.938282223603	849.187256126778	1415.313940265446	383.224270330864	965.942042118997	1350.268750461681	536.385416844201	900.064246569555	1427.406207885538	715.472722868567	848.618520842412	1481.581766450911	540.309425255418	929.926971708385	933.275016829930	686.862356064215	889.065262384764	949.224003910844	415.319217697658	974.006850862042	733.367758554103	642.939977143236	901.154168584373	614.813919068147	697.882483809835	974.658389339043	571.678870572410	609.583346049895	976.727469608980	476.307020738932	610.837256768920	984.285204427272	778.353094993265	437.402735990603	947.184634451805	650.282724156952	355.330902203974	1057.278341689583	599.425597033552	414.715641812996	1084.945081167299	521.911911277286	402.033151229121	1045.755167236604	446.444735818778	389.118284736660	935.831736491854	348.295718884422	344.800382867016	991.924906059039	223.755265017080	384.861103988600	932.230118122225	388.649475312968	611.201345428955	848.074351451847	291.322840097753	669.163889786935	873.413573434687	198.129308865849	596.755341191191	717.086138111476	43.606677555280	559.454435968604	890.998351426027	96.169030866526	595.471854040005	800.738682250861	37.044268360417	633.453969284866	1009.176519970890	41.683230973378	621.812684147638	860.452868250770	75.173281319112	431.346679113449	921.144302941255	67.562423970864	341.281407624407	1013.835246177857	120.820683607232	353.570982190192	1128.233641171015	58.976328898673	304.941728389327	786.503591457782	1060.358691439045	289.499697538656	833.226791642110	803.465933414338	303.107198250234	1023.969970350423	1106.110977851762	836.598749158480	1274.017088401964	1059.121600550540	797.279520693888	
